# xmcd CD database file
#
# Track frame offsets:
#	150
#	2320
#	18512
#	35387
#	49212
#	64942
#	75849
#	91330
#	101691
#	115384
#	126976
#	142109
#	157283
#	168184
#	183310
#	185040
#
# Disc length: 2527 seconds
#
# Revision: 2
# Processed by: cddbd v1.5.1PL0 Copyright (c) Steve Scherf et al.
# Submitted via: CDex 1.51
#
DISCID=d409dd10
DTITLE=Clyde Mattocks - Over My Shoulder
DYEAR=2004
DGENRE=Country
TTITLE0=Intro
TTITLE1=Steelin' The Blues
TTITLE2=Nobody's Darling But Mine
TTITLE3=I Can Do the Two Step...
TTITLE4=Midnight Waltz
TTITLE5=Flossing the Otter
TTITLE6=Whoever's In New England
TTITLE7=The Texas Waltz
TTITLE8=The Cowboy Rides Away
TTITLE9=Crying Steel Guitar Waltz
TTITLE10=Please Talk To My Heart
TTITLE11=In the Palm Of Your Hand
TTITLE12=Shenandoah Breakdown
TTITLE13=In The Sweet By And By
TTITLE14=Outro
TTITLE15=Bonus Track - One Act Play
EXTD=YEAR: 2004
EXTT0=
EXTT1=
EXTT2=
EXTT3=
EXTT4=
EXTT5=
EXTT6=
EXTT7=
EXTT8=
EXTT9=
EXTT10=
EXTT11=
EXTT12=
EXTT13=
EXTT14=
EXTT15=
PLAYORDER=
